<svg width="200" height="200" viewBox="0 0 200 200" fill="none" xmlns="http://www.w3.org/2000/svg">
<g clip-path="url(#clip0)">
<path d="M185 0H15C6.71573 0 0 6.71573 0 15V185C0 193.284 6.71573 200 15 200H185C193.284 200 200 193.284 200 185V15C200 6.71573 193.284 0 185 0Z" fill="#222222"/>
<path d="M180 10H20C14.4772 10 10 14.4772 10 20V180C10 185.523 14.4772 190 20 190H180C185.523 190 190 185.523 190 180V20C190 14.4772 185.523 10 180 10Z" fill="#03A9F4"/>
<path d="M85.0547 20.3602C81.8191 20.3477 78.5485 22.0891 76.9785 25.5125C76.4051 26.7627 76.2603 27.521 76.2696 29.2762C76.2787 31.0711 76.4367 31.7773 77.0664 32.9969C77.836 34.4871 79.2022 35.9894 80.5957 36.8504C81.1553 37.1961 81.9108 37.4379 82.6621 37.6336C82.9656 37.7126 83.2682 37.7966 83.5039 37.8699C83.5243 38.1171 83.5322 38.4352 83.5488 38.8738C83.5858 39.8805 83.6074 41.339 83.6074 43.1258C83.6074 45.8075 83.5926 47.1742 83.5488 47.8797C83.4755 47.8653 83.4967 47.869 83.416 47.8504C82.9805 47.7502 82.4039 47.5976 81.7188 47.4071C80.3481 47.0259 78.5533 46.4844 76.6094 45.8563C69.1408 43.443 64.5683 42.6216 61.3574 43.4793C60.1271 43.808 59.1282 44.2055 57.9473 45.0731C56.7664 45.9407 55.3735 47.2506 53.0605 49.5028C51.2978 51.2191 50.1076 52.2459 49.1641 52.8094C48.2205 53.3729 47.5513 53.5243 46.5215 53.534C45.8791 53.54 45.7354 53.4627 45.7832 53.5184C45.7692 53.4301 45.7393 53.2982 45.7383 53.0457V51.2743H43.4785H41.2207V52.2645C41.0211 52.1651 40.8303 52.0829 40.5996 51.954C39.8614 51.5412 39.0319 51.0079 38.5781 50.6395C38.0789 50.2342 37.7241 49.9316 37.4414 49.7098C37.1587 49.4881 37.0754 49.3299 36.584 49.1922C36.5225 49.175 36.4536 49.1689 36.3633 49.1629C36.273 49.1569 36.0469 49.1902 36.0391 49.1922C36.0312 49.1942 35.6896 49.3517 35.6836 49.3563C35.6806 49.3583 35.5397 49.4999 35.5371 49.5028C35.5345 49.5058 35.4623 49.5887 35.4336 49.6356C35.2042 50.0107 35.2633 50.1919 35.2715 50.329C35.2879 50.6031 35.3327 50.795 35.373 51.0536C35.8265 53.9599 37.9603 56.8763 40.5996 58.2137L41.2207 58.5243V59.3661V59.8524H40.3496H37.8398L36.5547 63.8543C35.9596 65.6936 34.6639 69.663 33.6758 72.6825C32.6871 75.7036 30.71 81.7389 29.291 86.0887C27.8724 90.4376 25.9163 96.4453 24.9355 99.4344L23.3555 104.218H19.9023H13.7148L15.9297 106.815C20.4396 112.125 25.676 114.928 34.0156 116.559C36.8525 117.115 37.6018 117.167 43.0371 117.165C48.4862 117.163 49.2239 117.119 52.0137 116.559C59.8428 114.991 65.7241 111.952 69.6563 107.317L72.1367 104.38L66.4668 104.218L63.4258 104.13L63.1445 103.229C62.8721 102.38 62.0974 100.012 61.4316 97.9579C60.7676 95.9085 59.6181 92.2928 58.877 89.9403C58.1337 87.5811 57.3453 85.1385 57.1055 84.4344C56.8938 83.8128 55.8723 80.6206 54.8477 77.4207C53.8221 74.2181 52.1678 69.1005 51.1856 66.0535L49.207 59.8817L46.7422 59.7938L45.8555 59.7645V59.6903V59.6024L47.8047 59.5126C48.6068 59.4747 49.4177 59.4173 50.0938 59.3505C50.7699 59.2837 51.227 59.2354 51.6445 59.1142C53.9138 58.455 55.8687 57.4964 58.5391 55.7333C60.4133 54.4959 61.513 53.8227 62.3477 53.5048C63.1823 53.1869 63.7965 53.1602 64.9609 53.2235C67.0325 53.3363 68.1651 53.7819 72.5645 56.2352C74.1442 57.1162 76.0007 58.1231 76.7715 58.5087C78.7079 59.4774 81.901 60.5819 83.5918 60.7821L83.873 60.8114L83.7109 72.4618L83.5625 84.745L81.2598 89.3954L78.75 94.4442L78.9121 109.149L79.0605 122.673H73.3906H65.8164V126.231V128.577L62.9082 133.376C61.2354 136.135 59.0616 139.736 58.0664 141.364C57.0659 143.001 56.1539 144.485 55.8965 144.981L54.877 146.974H86.1914C94.38 146.974 101.83 146.947 107.229 146.915C109.928 146.899 112.12 146.878 113.637 146.856C114.395 146.846 114.987 146.839 115.395 146.827C115.598 146.821 115.745 146.819 115.865 146.811C115.926 146.807 115.981 146.803 116.043 146.796C116.074 146.792 116.101 146.784 116.176 146.767C116.214 146.758 116.366 146.693 116.367 146.692C116.368 146.692 116.619 146.531 116.619 146.53C116.62 146.53 116.914 145.837 116.914 145.837C116.914 145.835 116.899 145.661 116.898 145.659C116.898 145.657 116.877 145.583 116.869 145.556C116.853 145.501 116.837 145.468 116.824 145.438C116.799 145.38 116.773 145.343 116.752 145.306C116.71 145.23 116.672 145.153 116.619 145.069C116.513 144.901 116.377 144.698 116.205 144.448C115.861 143.948 115.392 143.287 114.877 142.589C113.859 141.209 112.502 139.361 111.863 138.483C111.22 137.599 110.493 136.622 110.24 136.284C110.018 135.987 108.548 133.985 107.008 131.884L104.395 128.311V126.112V122.686L97.6914 122.612L92.8477 122.567L92.7461 108.778L92.6426 93.8232L92.0215 92.7295C91.825 92.381 90.7121 90.1265 89.6895 87.9756L87.918 84.2568V72.2256V60.7685L88.6426 60.6357C91.4819 60.081 93.7572 59.0405 100.172 55.4678C103.791 53.452 105.802 52.9048 107.82 53.1787C108.961 53.3335 110.034 53.8624 113.297 56.0283C116.897 58.418 120.111 59.5196 123.602 59.5283C124.158 59.5293 124.287 59.55 124.414 59.5576C124.417 59.6598 124.417 59.7211 124.414 59.8232C124.277 59.8312 124.093 59.8525 123.455 59.8525H121.062L120.385 61.7275C120.101 62.5172 118.779 66.5884 117.371 70.9404C115.964 75.2886 114.333 80.2844 113.756 82.0283C113.174 83.7868 111.552 88.7656 110.139 93.1162C108.726 97.4642 107.273 101.89 106.934 102.89L106.521 104.114L103.096 104.173L97.1602 104.263L98.8574 106.55C101.609 110.275 106.628 113.574 111.998 115.276C119.106 117.529 128.455 117.926 136.182 116.323C139.557 115.623 141.807 114.839 144.861 113.343C148.384 111.618 150.782 109.712 153.484 106.477L155.373 104.218H149.646H146.604L146.354 103.479C146.108 102.759 145.279 100.207 144.537 97.8544C143.793 95.4961 143.014 93.043 142.781 92.3486C142.566 91.7042 141.819 89.4101 141.143 87.2978C140.466 85.1832 139.631 82.5697 139.281 81.4814C138.678 79.6032 136.534 72.8981 133.818 64.3994L132.371 59.8525H129.861H128.99V59.5713C128.99 59.2318 129.01 59.1333 129.023 59.0341C132.558 57.8038 135.307 54.713 135.959 51.1279L136.625 47.5107L133.303 50.1826C132.777 50.608 131.743 51.2644 130.734 51.8213C130.013 52.2194 129.495 52.4245 128.992 52.6338V51.2744H126.732H124.475V53.0615C124.475 53.3193 124.446 53.4483 124.428 53.5322C124.348 53.5332 124.23 53.5362 123.986 53.4892C123.191 53.3362 122.566 53.087 121.684 52.4716C120.801 51.8562 119.683 50.8537 118.08 49.2822C115.497 46.7503 113.858 45.26 112.264 44.3661C110.669 43.4723 109.159 43.2669 107.186 43.2724C103.6 43.2824 101.17 43.8016 94.4883 45.9443C92.6291 46.5405 90.7039 47.1033 89.1875 47.5243C88.4527 47.7284 87.8315 47.8949 87.3418 48.0126C87.3348 47.7923 87.3178 47.6331 87.3125 47.3486C87.2929 46.2615 87.2966 44.7436 87.3125 43.081L87.3574 37.706L87.623 37.6337C90.0953 36.9039 91.9596 35.2364 93.1308 32.7606C93.6921 31.5742 93.8533 30.7853 93.8535 29.202C93.8536 27.6204 93.6856 26.829 93.1152 25.5712C91.5579 22.1374 88.2903 20.3727 85.0546 20.3602L85.0547 20.3602ZM124.311 64.6063C124.35 65.0917 124.392 65.8814 124.414 67.2352C124.461 70.0641 124.473 75.149 124.473 84.1981C124.473 89.7719 124.452 94.8734 124.428 98.6082C124.416 100.476 124.401 101.999 124.385 103.065C124.378 103.516 124.377 103.838 124.369 104.114C124.218 104.131 124.154 104.145 123.867 104.159C122.855 104.205 120.987 104.218 117.695 104.218C114.881 104.218 113.022 104.199 111.893 104.159C111.672 104.151 111.617 104.139 111.451 104.13C111.469 104.073 111.477 104.042 111.496 103.981C111.697 103.323 111.97 102.45 112.277 101.516C113.541 97.6756 114.868 93.6484 116.824 87.6687C117.733 84.892 119.546 79.2957 121.166 74.3074C122.781 69.335 124.16 65.0983 124.311 64.6062V64.6063ZM41.1016 65.0496L41.1621 84.3602L41.2207 104.218H34.709C32.664 104.218 30.783 104.203 29.4238 104.173C28.9581 104.163 28.662 104.141 28.3321 104.128C28.3735 103.984 28.3989 103.898 28.4492 103.729C28.7163 102.836 29.1073 101.612 29.543 100.29C30.4199 97.6293 32.2867 91.9001 33.7051 87.5497C35.1231 83.2004 37.0791 77.2201 38.0469 74.2606C39.015 71.3003 40.1662 67.7959 40.5996 66.4657C40.776 65.9244 40.9463 65.4608 41.1016 65.0497V65.0496ZM45.916 65.0789C45.9832 65.2398 45.9932 65.2344 46.0781 65.4637C46.6035 66.8824 47.4989 69.6521 49.1778 74.911C50.1615 77.9924 51.7878 83.0933 52.7949 86.2352C53.8017 89.3761 55.4276 94.4633 56.4121 97.5438C57.3969 100.625 58.3458 103.582 58.5235 104.13C58.2222 104.142 57.9631 104.164 57.5488 104.175C56.231 104.207 54.4074 104.218 52.3965 104.218C49.1553 104.218 47.3107 104.205 46.3145 104.159C46.0441 104.146 45.9898 104.131 45.8418 104.114C45.8347 103.838 45.8328 103.518 45.8262 103.067C45.8103 102.001 45.7953 100.476 45.7832 98.6082C45.7591 94.8735 45.7383 89.772 45.7383 84.1981C45.7383 73.2288 45.7242 67.9812 45.8555 65.5965C45.8782 65.1831 45.8745 65.3257 45.916 65.0789V65.0789ZM129.139 65.1375C129.146 65.1565 129.147 65.1475 129.154 65.1668C129.568 66.2938 130.291 68.56 131.664 72.9325C132.284 74.9081 134.12 80.6362 136.596 88.3172C138.355 93.775 139.674 97.9067 140.551 100.704C140.989 102.103 141.324 103.163 141.541 103.893C141.574 104.003 141.587 104.049 141.615 104.143C141.511 104.15 141.509 104.153 141.379 104.159C140.356 104.203 138.523 104.218 135.414 104.218H128.992V84.4051C128.992 73.1259 128.978 67.7969 129.109 65.4344C129.117 65.292 129.13 65.2584 129.139 65.1375L129.139 65.1375Z" fill="#222222"/>
<path d="M5.5 140V171.5C5.5 183.134 14.866 192.5 26.5 192.5H173.5C185.134 192.5 194.5 183.134 194.5 171.5V140H5.5Z" fill="#222222"/>
<path d="M38.1341 173.208L39.7421 177H42.7661L35.4221 160.2H32.5181L25.1021 177H28.0541L29.6621 173.208H38.1341ZM37.0541 170.688H30.7181L33.8861 163.224L37.0541 170.688ZM59.5729 177V160.2H56.7889V172.272L47.7889 160.2H45.0049V177H47.8369V164.952L56.7889 177H59.5729ZM74.8607 173.208L76.4687 177H79.4927L72.1487 160.2H69.2447L61.8287 177H64.7807L66.3887 173.208H74.8607ZM73.7807 170.688H67.4447L70.6127 163.224L73.7807 170.688ZM84.5634 174.432V160.2H81.7314V177H91.8354V174.432H84.5634ZM101.44 171.408L107.608 160.2H104.728L100.024 168.384L95.2238 160.2H92.3678L98.6318 171.504V177H101.44V171.408ZM121.305 162.744V160.2H107.841V162.744H113.145V177H115.977V162.744H121.305ZM126.563 177V160.2H123.731V177H126.563ZM138.414 160.128C133.446 160.128 129.582 163.8 129.582 168.576C129.582 173.4 133.398 177.12 138.318 177.12C140.694 177.12 143.118 176.04 144.822 174.36L143.142 172.488C141.87 173.712 140.142 174.48 138.462 174.48C135.102 174.48 132.462 171.864 132.462 168.552C132.462 165.24 135.102 162.648 138.462 162.648C140.166 162.648 141.918 163.464 143.142 164.784L144.798 162.72C143.166 161.112 140.79 160.128 138.414 160.128ZM158.439 173.208L160.047 177H163.071L155.727 160.2H152.823L145.407 177H148.359L149.967 173.208H158.439ZM157.359 170.688H151.023L154.191 163.224L157.359 170.688ZM168.142 174.432V160.2H165.31V177H175.414V174.432H168.142Z" fill="white"/>
</g>
<defs>
<clipPath id="clip0">
<rect width="200" height="200" fill="white"/>
</clipPath>
</defs>
</svg>
