<svg width="200" height="200" viewBox="0 0 200 200" fill="none" xmlns="http://www.w3.org/2000/svg">
<g clip-path="url(#clip0)">
<path d="M185 0H15C6.71573 0 0 6.71573 0 15V185C0 193.284 6.71573 200 15 200H185C193.284 200 200 193.284 200 185V15C200 6.71573 193.284 0 185 0Z" fill="#222222"/>
<path d="M180 10H20C14.4772 10 10 14.4772 10 20V180C10 185.523 14.4772 190 20 190H180C185.523 190 190 185.523 190 180V20C190 14.4772 185.523 10 180 10Z" fill="#FFEB3B"/>
<path d="M81.6751 26.0541C81.4362 26.0788 81.2103 26.1746 81.0265 26.3292C80.8427 26.4837 80.7095 26.6899 80.6442 26.921C80.6441 26.9273 80.6441 26.9337 80.6442 26.94C76.6532 27.5032 72.8824 29.9738 69.454 35.4592C65.8515 41.3207 63.1369 49.7384 61.0567 60.22C51.2579 56.8314 42.7347 54.9257 35.8366 55.0467C28.5863 55.1747 23.5453 57.0287 21.2772 60.9979C21.2771 61.0043 21.2771 61.0107 21.2772 61.017C20.4961 62.4369 20.1104 64.051 20.1104 65.8155C20.1104 68.998 21.2842 72.5552 23.4937 76.5324C26.7633 82.5802 32.623 89.0556 40.4429 95.9231C32.5019 102.907 26.5682 109.429 23.2968 115.426C23.2968 115.431 23.2968 115.436 23.2968 115.441C21.2173 119.412 20.1104 122.892 20.1104 125.947C20.1104 127.712 20.4976 129.326 21.2772 130.745C21.2771 130.752 21.2771 130.758 21.2772 130.764C23.4798 134.672 28.4111 136.552 35.5367 136.805C35.543 136.805 35.5494 136.805 35.5557 136.805C42.4632 136.985 51.0785 135.039 61.0429 131.542C63.1151 141.736 65.7548 150.085 69.2575 156.003C69.2575 156.008 69.2575 156.013 69.2575 156.018C73.0394 162.258 77.199 165.709 81.7973 165.709C86.3437 165.709 90.4402 162.258 94.1589 156.018C94.159 156.013 94.159 156.008 94.1589 156.003C97.6646 150.08 100.324 141.729 102.397 131.523C112.449 134.983 121.087 136.898 127.954 136.716C135.071 136.528 140 134.681 142.209 130.783V130.764C143.062 129.336 143.484 127.668 143.484 125.839C143.484 122.784 142.379 119.338 140.297 115.427C140.297 115.421 140.297 115.414 140.297 115.408C136.95 109.383 130.97 102.879 122.959 95.9094C130.788 89.0349 136.737 82.5445 140.119 76.4437H140.1C142.311 72.5279 143.484 69.0323 143.484 65.9049C143.484 64.0761 143.062 62.4083 142.209 60.9799C139.935 57.0144 134.882 55.173 127.579 55.0471C120.699 54.9245 112.16 56.8318 102.34 60.2017C100.261 49.7331 97.5659 41.3161 93.9665 35.4596C90.2473 29.408 86.2213 26.0548 81.7969 26.0548C81.7563 26.0527 81.7157 26.0527 81.6751 26.0548L81.6751 26.0541ZM81.797 33.1393C82.9334 33.1393 84.123 33.6503 85.4474 34.8919C86.7717 36.1334 88.1684 38.1008 89.571 40.7869C92.1886 45.7374 94.2873 53.1653 95.9112 62.469C91.187 64.2854 86.487 66.3346 81.8157 68.6499C77.0242 66.327 72.2503 64.2904 67.5047 62.469C69.1286 53.1653 71.2273 45.7374 73.8448 40.7869C75.2459 38.104 76.6551 36.1325 78.006 34.8919C79.3569 33.6512 80.5848 33.1393 81.797 33.1393H81.797ZM36.01 61.4521C36.6986 61.4435 37.4254 61.4569 38.1937 61.4949C43.8434 61.7806 51.1833 63.6659 59.7821 66.8228C59.0305 71.8544 58.4678 76.9867 58.1186 82.2164C53.736 85.1756 49.5833 88.2285 45.6491 91.3915C38.56 85.5244 33.233 80.101 30.1525 75.3091C30.1526 75.3027 30.1526 75.2964 30.1525 75.29C28.4842 72.728 27.4676 70.5202 27.0691 68.7203C26.6707 66.9203 26.8477 65.5824 27.4956 64.5029C27.502 64.4966 27.5084 64.4902 27.5146 64.4838C28.1021 63.4497 29.1517 62.6504 30.9167 62.1126C32.2404 61.7093 33.9446 61.4792 36.0104 61.4519L36.01 61.4521ZM127.5 61.4521C129.566 61.4792 131.275 61.7085 132.612 62.1128C134.384 62.6486 135.462 63.4498 136.08 64.4839C136.701 65.5599 136.887 66.8966 136.473 68.7013C136.06 70.506 135.022 72.7265 133.352 75.2899C133.352 75.2962 133.352 75.3026 133.352 75.309C130.273 80.1563 124.913 85.6109 117.767 91.4804C113.83 88.3152 109.688 85.2475 105.302 82.2865C104.951 77.0079 104.348 71.8546 103.545 66.8227C112.143 63.6668 119.527 61.7824 125.297 61.4947H125.312C126.081 61.4572 126.812 61.4441 127.501 61.452L127.5 61.4521ZM96.9937 69.3387C97.3402 72.0142 97.6051 74.7424 97.8418 77.5017C96.5146 76.6836 95.186 75.8675 93.8587 75.0228C93.8416 75.0116 93.8242 75.0009 93.8066 74.9906C92.3315 74.1707 90.9226 73.4179 89.5008 72.6522C92.0252 71.4964 94.5254 70.3848 96.9937 69.3392L96.9937 69.3387ZM66.4409 69.4094C68.9095 70.4194 71.4086 71.5224 73.9339 72.6708C72.5275 73.4356 71.1353 74.1904 69.7024 75.0091C69.69 75.0139 69.6776 75.0188 69.6654 75.024C68.2832 75.8777 66.9297 76.6949 65.5745 77.5216C65.8117 74.7683 66.0943 72.0515 66.4414 69.4101L66.4409 69.4094ZM81.6049 76.4946C84.4787 77.996 87.3528 79.5243 90.2271 81.1338C93.037 82.7392 95.7774 84.4159 98.4792 86.129C98.6403 89.3423 98.7275 92.6001 98.7275 95.9228C98.7275 99.1917 98.6403 102.432 98.4792 105.646C95.8347 107.355 93.0893 109.02 90.2271 110.623C90.2207 110.629 90.2144 110.635 90.2082 110.642C87.4011 112.303 84.5843 113.852 81.7782 115.351C78.8794 113.857 76.0523 112.295 73.3153 110.642C73.2968 110.635 73.2782 110.629 73.2594 110.623C70.3402 109.02 67.5822 107.354 64.9364 105.646C64.8287 102.431 64.7771 99.1926 64.7771 95.9227C64.7771 92.5991 64.8296 89.3439 64.9364 86.129C67.6398 84.4169 70.411 82.7391 73.2775 81.1337C73.2838 81.1337 73.2901 81.1337 73.2964 81.1337C76.041 79.533 78.8068 77.9886 81.6047 76.4947L81.6049 76.4946ZM81.797 87.7223C80.3693 87.7223 78.9941 88.1002 77.7249 88.8048C76.4293 89.461 75.3935 90.4758 74.679 91.7616C73.9689 93.0394 73.5965 94.4439 73.5965 95.9228C73.5965 97.3502 73.9736 98.744 74.679 100.014C74.6852 100.02 74.6915 100.026 74.6979 100.033C75.4189 101.259 76.4505 102.249 77.725 102.957C78.9947 103.662 80.3698 104.034 81.7972 104.034C83.174 104.034 84.524 103.657 85.785 102.957C87.0595 102.249 88.091 101.259 88.8121 100.033C88.8185 100.026 88.8248 100.02 88.831 100.014C89.5363 98.744 89.9088 97.3502 89.9088 95.9228C89.9088 94.4435 89.541 93.0393 88.831 91.7616C88.1165 90.4751 87.0805 89.461 85.7851 88.8048C84.5238 88.104 83.1739 87.7223 81.7973 87.7223H81.797ZM57.7296 91.054C57.7015 92.6723 57.6734 94.2775 57.6734 95.9228C57.6734 97.5233 57.7015 99.1205 57.7296 100.721C55.4367 99.145 53.196 97.5532 51.0708 95.9228C53.1974 94.2552 55.4348 92.6397 57.7296 91.054ZM105.705 91.054C108.012 92.6428 110.272 94.2515 112.439 95.9228C110.273 97.5568 108.01 99.1418 105.705 100.721C105.759 99.1218 105.831 97.5222 105.831 95.9228C105.831 94.2789 105.76 92.6713 105.705 91.054ZM45.5788 100.37C49.5667 103.534 53.731 106.598 58.1186 109.559C58.4688 114.782 59.0315 119.908 59.7821 124.934C51.0087 128.148 43.5692 130.039 37.9266 130.267C34.914 130.386 32.528 130.148 30.7898 129.611C29.0516 129.073 28.0119 128.281 27.4252 127.272C26.8397 126.265 26.669 124.961 27.0691 123.181C27.4692 121.402 28.4524 119.191 30.0635 116.626C30.0699 116.621 30.0763 116.616 30.0826 116.611C32.9798 111.839 38.3216 106.353 45.5792 100.369L45.5788 100.37ZM117.837 100.37C125.1 106.355 130.483 111.847 133.441 116.626C133.441 116.632 133.441 116.638 133.441 116.645C135.082 119.209 136.089 121.408 136.487 123.182C136.886 124.955 136.708 126.246 136.098 127.254C136.098 127.26 136.098 127.266 136.098 127.273C135.512 128.282 134.453 129.073 132.715 129.611C130.977 130.149 128.591 130.386 125.578 130.267C119.935 130.039 112.466 128.15 103.634 124.934C104.385 119.908 104.953 114.783 105.302 109.559C109.69 106.598 113.849 103.535 117.837 100.37L117.837 100.37ZM65.5741 114.236C66.9294 115.084 68.267 115.951 69.7024 116.771C71.093 117.589 72.5163 118.346 73.9339 119.109C71.4044 120.268 68.8955 121.37 66.4222 122.418C66.075 119.736 65.8112 117.001 65.5741 114.236H65.5741ZM97.8419 114.255C97.6051 117.014 97.3403 119.742 96.9937 122.418C94.5253 121.372 92.0252 120.265 89.5008 119.109C90.9226 118.344 92.3315 117.591 93.8072 116.771C93.8123 116.765 93.8174 116.759 93.8223 116.752C95.202 115.941 96.5159 115.093 97.8429 114.255L97.8419 114.255ZM81.6049 123.111C86.3551 125.441 91.1269 127.505 95.93 129.381C94.3628 138.469 92.2868 145.798 89.6601 150.88C89.6601 150.887 89.6601 150.893 89.6601 150.899C88.2888 153.612 86.8858 155.598 85.5505 156.851C84.2152 158.103 83.0053 158.622 81.797 158.622C80.5512 158.622 79.3006 158.086 77.9357 156.832C76.5708 155.577 75.1567 153.593 73.7558 150.881C71.1291 145.799 69.0532 138.47 67.4859 129.381C72.2171 127.511 76.9263 125.432 81.6049 123.112V123.111Z" fill="#222222"/>
<path d="M5.5 140V171.5C5.5 183.134 14.866 192.5 26.5 192.5H173.5C185.134 192.5 194.5 183.134 194.5 171.5V140H5.5Z" fill="#222222"/>
<path d="M26.773 159.128C21.805 159.128 17.941 162.8 17.941 167.576C17.941 172.4 21.757 176.12 26.677 176.12C29.053 176.12 31.477 175.04 33.181 173.36L31.501 171.488C30.229 172.712 28.501 173.48 26.821 173.48C23.461 173.48 20.821 170.864 20.821 167.552C20.821 164.24 23.461 161.648 26.821 161.648C28.525 161.648 30.277 162.464 31.501 163.784L33.157 161.72C31.525 160.112 29.149 159.128 26.773 159.128ZM43.2278 159.128C38.2118 159.128 34.3238 162.776 34.3238 167.6C34.3238 172.4 38.2118 176.12 43.2278 176.12C48.2438 176.12 52.1318 172.4 52.1318 167.6C52.1318 162.8 48.2438 159.128 43.2278 159.128ZM43.2518 161.672C46.5398 161.672 49.2278 164.264 49.2278 167.6C49.2278 170.936 46.5398 173.576 43.2518 173.576C39.9638 173.576 37.2038 170.936 37.2038 167.6C37.2038 164.264 39.9398 161.672 43.2518 161.672ZM69.7135 176V159.2H66.9295V171.272L57.9295 159.2H55.1455V176H57.9775V163.952L66.9295 176H69.7135ZM81.5933 159.128C76.6253 159.128 72.7613 162.8 72.7613 167.576C72.7613 172.4 76.5773 176.12 81.4973 176.12C83.8733 176.12 86.2973 175.04 88.0013 173.36L86.3213 171.488C85.0493 172.712 83.3213 173.48 81.6413 173.48C78.2813 173.48 75.6413 170.864 75.6413 167.552C75.6413 164.24 78.2813 161.648 81.6413 161.648C83.3453 161.648 85.0973 162.464 86.3213 163.784L87.9773 161.72C86.3453 160.112 83.9693 159.128 81.5933 159.128ZM102.888 161.744V159.2H90.8877V176H103.176V173.456H93.7197V168.824H101.928V166.28H93.7197V161.744H102.888ZM106.638 159.2V176H109.47V170.936H113.334C117.558 170.936 119.982 168.728 119.982 164.936C119.982 161.288 117.558 159.2 113.334 159.2H106.638ZM109.47 161.744H113.214C115.806 161.744 117.27 162.8 117.27 165.008C117.27 167.288 115.806 168.392 113.214 168.392H109.47V161.744ZM134.258 161.744V159.2H120.794V161.744H126.098V176H128.93V161.744H134.258ZM150.965 159.2H148.133V169.04C148.133 171.896 146.429 173.576 143.693 173.576C140.933 173.576 139.181 171.872 139.181 169.04V159.2H136.349V169.04C136.349 173.432 139.133 176.12 143.669 176.12C148.205 176.12 150.965 173.432 150.965 169.04V159.2ZM165.392 172.208L167 176H170.024L162.68 159.2H159.776L152.36 176H155.312L156.92 172.208H165.392ZM164.312 169.688H157.976L161.144 162.224L164.312 169.688ZM175.095 173.432V159.2H172.263V176H182.367V173.432H175.095Z" fill="white"/>
</g>
<defs>
<clipPath id="clip0">
<rect width="200" height="200" fill="white"/>
</clipPath>
</defs>
</svg>
