<svg width="200" height="200" viewBox="0 0 200 200" fill="none" xmlns="http://www.w3.org/2000/svg">
<g clip-path="url(#clip0)">
<path d="M185 0H15C6.71573 0 0 6.71573 0 15V185C0 193.284 6.71573 200 15 200H185C193.284 200 200 193.284 200 185V15C200 6.71573 193.284 0 185 0Z" fill="#222222"/>
<path d="M180 10H20C14.4772 10 10 14.4772 10 20V180C10 185.523 14.4772 190 20 190H180C185.523 190 190 185.523 190 180V20C190 14.4772 185.523 10 180 10Z" fill="#F44336"/>
<path d="M81.8864 162.422C80.316 162.09 76.9076 160.993 76.0188 160.533C75.6123 160.323 74.5952 159.926 73.7585 159.652C69.9832 158.412 66.8631 156.266 64.9615 153.602C62.3154 149.893 53.7698 134.388 53.7588 133.276C53.7569 133.04 54.0714 132.305 54.4586 131.643C56.1769 128.704 56.977 125.564 56.534 123.499C56.3868 122.812 56.2664 121.929 56.2664 121.536C56.2664 120.674 56.125 120.613 53.3209 120.261C52.1089 120.109 50.8064 119.865 50.4265 119.718C49.8054 119.479 49.7358 119.33 49.7358 118.241C49.7358 117.575 49.863 116.952 50.0184 116.856C50.2185 116.732 50.2461 115.903 50.1128 114.015C49.5334 105.802 50.3629 102.296 53.7408 98.6796L54.5277 97.8372L52.9115 94.1694C51.415 90.7731 47.8991 81.856 47.2563 79.8265C46.7797 78.3217 46.0341 74.5329 45.724 72.04C45.5608 70.7276 45.3229 69.2451 45.1953 68.7456C45.0677 68.2461 44.9634 66.765 44.9634 65.4543C44.9634 64.1437 44.8921 62.3923 44.8057 61.5623L44.6479 60.0532L43.7951 60.9973C42.7488 62.1554 41.434 62.8158 40.5943 62.6051C40.2529 62.5195 39.5139 62.0249 38.952 61.5062L37.9304 60.563V58.515C37.9304 57.3172 37.8262 56.467 37.6792 56.467C37.2812 56.467 37.3928 53.6463 37.8128 53.0909C38.3526 52.3773 38.2649 51.5812 37.5536 50.7358C37.2083 50.3253 36.9257 49.8537 36.9257 49.6878C36.9257 49.5218 36.7357 49.0645 36.5036 48.6714C36.1082 48.0022 36.1082 47.8607 36.5036 46.4387C36.7357 45.6037 36.9257 44.4932 36.9257 43.9709C36.9257 43.0623 36.873 43.0027 35.7076 42.5888C34.0714 42.0076 33.2812 41.3422 32.3972 39.8007C31.7023 38.5892 31.6555 38.3375 31.6534 35.7996C31.6515 33.3764 31.7319 32.8813 32.4205 31.096C33.3303 28.7367 34.8946 26.5316 36.4993 25.3461C37.5411 24.5765 37.6917 24.3334 38.0213 22.888C38.4693 20.924 39.602 19.4421 41.4053 18.4606C42.4471 17.8936 43.1676 17.7283 45.3901 17.5464C46.8822 17.4243 48.343 17.2493 48.6362 17.1574C49.0455 17.0292 49.2928 17.1638 49.7005 17.7363C50.2266 18.4752 51.8186 19.2929 52.731 19.2929C53.1403 19.2929 53.1857 19.4324 53.0663 20.323C52.9058 21.5188 53.1743 21.7942 54.5081 21.8022C54.9916 21.805 55.8094 21.9246 56.3253 22.068C57.471 22.3861 58.9924 22.037 59.6563 21.3034C60.3794 20.5043 60.5364 20.6947 60.5354 22.3698C60.5344 24.2366 59.882 25.5718 58.9702 25.5733C58.2279 25.5745 56.901 26.3928 56.3989 27.1591C55.8259 28.0337 56.2482 28.9098 57.6347 29.7223C58.9099 30.4696 59.048 30.9205 58.213 31.6097C57.6603 32.0658 57.6575 32.0935 58.0874 32.8634C58.6552 33.8802 58.6842 37.12 58.1394 38.6638C57.4783 40.5374 55.3939 42.3325 52.3925 43.6129L50.7683 44.3058L51.9056 45.928C54.0104 48.9303 54.8979 51.0784 55.6372 54.96C56.3452 58.6775 57.7916 62.6661 60.009 67.0165C63.8193 74.4917 64.2301 75.3942 65.4035 78.8668C66.0421 80.7565 66.5645 82.4802 66.5645 82.6973C66.5645 82.9143 66.6782 83.0918 66.8172 83.0918C67.1976 83.0918 78.1829 81.1019 78.267 81.0178C78.3658 80.919 78.8722 76.8401 78.8722 76.1431C78.8722 75.6704 78.0076 75.1413 73.1579 72.6464C64.8478 68.3712 61.6808 66.7225 61.5577 66.6075C61.4981 66.5517 61.5565 66.3982 61.6879 66.2668C61.839 66.1157 62.6635 66.2048 63.9317 66.5105C65.0344 66.7759 67.3495 67.3312 69.0763 67.7445C70.8032 68.1578 74.1132 68.9543 76.432 69.5145C78.7508 70.0747 80.7967 70.533 80.9785 70.533C81.4106 70.533 84.6493 68.0797 84.6493 67.7524C84.6493 67.3645 78.075 54.3433 77.8312 54.2483C77.713 54.2026 77.6163 54.0045 77.6163 53.8088C77.6163 53.6131 77.5033 53.4529 77.3651 53.4529C77.227 53.4529 77.114 53.2819 77.114 53.0728C77.114 52.6998 76.6321 51.6911 76.3356 51.4435C76.2529 51.3745 76.1869 51.1289 76.1891 50.8978C76.193 50.4696 76.8854 51.176 82.3854 57.2206C83.9567 58.9474 86.2005 61.4058 87.3715 62.6837L89.5007 65.0071H91.6767H93.8526L94.5142 61.8046C94.878 60.0432 95.699 56.0589 96.3386 52.9506C96.9782 49.8423 97.5346 47.2658 97.5752 47.2252C97.6586 47.1416 97.8425 50.0393 98.2174 57.3462C98.3591 60.1091 98.5366 63.1659 98.6118 64.139L98.7484 65.9084L100.678 66.6508C101.74 67.0592 102.682 67.3932 102.772 67.3932C102.964 67.3932 114.03 57.162 115.251 55.8556C116.191 54.8494 116.565 54.7179 116.37 55.4623C116.299 55.7386 116.139 55.9647 116.017 55.9647C115.895 55.9647 115.795 56.1343 115.795 56.3414C115.795 56.5487 115.695 56.7182 115.573 56.7182C115.451 56.7182 115.287 56.916 115.208 57.1577C115.068 57.5856 114.151 59.2182 113.339 60.4858C113.118 60.8312 111.556 63.5177 109.869 66.4558L106.801 71.7978L107.909 72.56L109.017 73.3222L113.222 72.1576C115.535 71.517 119.565 70.3772 122.176 69.6247C124.788 68.8721 127.005 68.2882 127.104 68.3272C127.203 68.3659 123.907 70.602 119.781 73.2958C114.453 76.7734 112.311 78.303 112.395 78.5706C112.459 78.7778 112.821 79.795 113.2 80.8311C113.817 82.5219 113.893 83.0882 113.939 86.357C113.99 89.9084 114.011 90.0429 114.822 91.7573C115.543 93.281 115.667 93.8364 115.752 95.9208C115.837 97.9935 115.777 98.4695 115.32 99.3644C114.632 100.713 114.65 100.948 115.502 101.764C115.993 102.234 116.91 102.633 118.454 103.046C122.732 104.191 126.863 106.18 128.193 107.734C129.59 109.365 130.405 111.351 130.759 113.983C131.42 118.911 131.664 138.71 131.8 142.274L131.941 145.94L130.492 148.804C128.512 152.716 127.122 154.805 125.728 155.965C125.08 156.503 123.775 157.96 122.827 159.204C121.88 160.447 120.616 161.93 120.02 162.499C117.881 164.539 113.424 167.917 111.052 169.296C109.724 170.069 107.789 171.235 106.753 171.889C103.815 173.743 101.416 174.862 97.5949 176.161C95.6554 176.82 92.9338 160.555 91.547 161.051C88.9644 161.976 85.462 162.723 83.8958 162.683C83.4123 162.671 82.5081 162.553 81.8864 162.422L81.8864 162.422ZM84.3376 100.611C85.0155 99.8879 85.4029 98.8585 85.4029 97.7811C85.4029 97.014 85.2915 96.8808 84.2724 96.43C83.6507 96.155 82.5305 95.3517 81.7832 94.645L80.4246 93.3601L77.7018 94.2068C74.3124 95.2607 74.1911 95.5225 76.2442 97.3525C77.254 98.2524 78.1883 98.8028 79.4932 99.266C80.5006 99.6236 81.8185 100.198 82.4219 100.543C83.7578 101.307 83.6883 101.305 84.3376 100.611V100.611ZM80.2765 88.2132C80.3532 87.9216 80.2092 87.2434 79.9563 86.7061L79.4965 85.7292L73.2189 85.6748L66.9413 85.6204L68.2528 86.3029C69.0892 86.7382 69.8506 87.3948 70.3549 88.1157C70.7899 88.7374 71.7084 89.8258 72.3961 90.5346L73.6465 91.8231L76.8916 90.2834C79.2492 89.1647 80.1749 88.5986 80.2765 88.2135L80.2765 88.2132Z" fill="#222222"/>
<path d="M5.5 140V171.5C5.5 183.134 14.866 192.5 26.5 192.5H173.5C185.134 192.5 194.5 183.134 194.5 171.5V140H5.5Z" fill="#222222"/>
<path d="M64.1303 157.08C60.4823 157.08 58.0103 158.88 58.0103 161.76C58.0103 167.736 67.0823 165.648 67.0823 169.392C67.0823 170.688 65.9063 171.432 63.9383 171.432C62.1383 171.432 59.9783 170.568 58.2503 168.984L57.0263 171.432C58.7543 173.016 61.2503 174.096 63.8903 174.096C67.5863 174.096 70.2263 172.248 70.2263 169.248C70.2503 163.2 61.1783 165.168 61.1783 161.496C61.1783 160.368 62.2583 159.744 63.9143 159.744C65.1863 159.744 67.0103 160.2 68.8343 161.304L70.0103 158.808C68.4503 157.776 66.3143 157.08 64.1303 157.08ZM81.052 157.128C76.036 157.128 72.148 160.776 72.148 165.6C72.148 170.4 76.036 174.12 81.052 174.12C86.068 174.12 89.956 170.4 89.956 165.6C89.956 160.8 86.068 157.128 81.052 157.128ZM81.076 159.672C84.364 159.672 87.052 162.264 87.052 165.6C87.052 168.936 84.364 171.576 81.076 171.576C77.788 171.576 75.028 168.936 75.028 165.6C75.028 162.264 77.764 159.672 81.076 159.672ZM99.73 157.128C94.762 157.128 90.898 160.8 90.898 165.576C90.898 170.4 94.714 174.12 99.634 174.12C102.01 174.12 104.434 173.04 106.138 171.36L104.458 169.488C103.186 170.712 101.458 171.48 99.778 171.48C96.418 171.48 93.778 168.864 93.778 165.552C93.778 162.24 96.418 159.648 99.778 159.648C101.482 159.648 103.234 160.464 104.458 161.784L106.114 159.72C104.482 158.112 102.106 157.128 99.73 157.128ZM111.856 174V157.2H109.024V174H111.856ZM127.115 170.208L128.723 174H131.747L124.403 157.2H121.499L114.083 174H117.035L118.643 170.208H127.115ZM126.035 167.688H119.699L122.867 160.224L126.035 167.688ZM136.817 171.432V157.2H133.985V174H144.089V171.432H136.817Z" fill="white"/>
</g>
<defs>
<clipPath id="clip0">
<rect width="200" height="200" fill="white"/>
</clipPath>
</defs>
</svg>
