<svg width="200" height="200" viewBox="0 0 200 200" fill="none" xmlns="http://www.w3.org/2000/svg">
<path d="M185 0H15C6.71573 0 0 6.71573 0 15V185C0 193.284 6.71573 200 15 200H185C193.284 200 200 193.284 200 185V15C200 6.71573 193.284 0 185 0Z" fill="#222222"/>
<path d="M180 10H20C14.4772 10 10 14.4772 10 20V180C10 185.523 14.4772 190 20 190H180C185.523 190 190 185.523 190 180V20C190 14.4772 185.523 10 180 10Z" fill="#00897B"/>
<path d="M87.7932 19.2996C85.5918 19.2996 83.3903 19.3571 82.1311 19.4734C67.6858 20.8074 55.0665 25.9364 43.9514 35.0046C41.5596 36.956 36.8496 41.6609 34.8283 44.114C25.8681 54.9885 20.6855 67.5207 19.2522 81.7468C18.9615 84.6308 18.9194 90.9344 19.178 93.7351C20.532 108.404 25.8302 121.236 35.1526 132.43C35.9235 133.356 37.6902 135.236 39.1682 136.714C42.8632 140.409 45.7195 142.762 49.9456 145.571C59.4972 151.92 70.9746 155.863 82.3518 156.688C83.4726 156.77 84.6955 156.852 85.0686 156.88C86.6626 156.996 91.8397 156.825 94.135 156.614C102.733 155.823 110.747 153.542 118.51 149.675C138.681 139.626 152.746 120.173 155.891 97.9871C156.42 94.257 156.589 91.8628 156.584 87.948C156.573 80.2354 155.459 73.3794 153.028 66.1121C150.312 57.9953 146.119 50.5581 140.434 43.7312C138.653 41.5933 134.236 37.1739 132.137 35.4324C120.861 26.0756 108.139 20.8294 93.4553 19.4734C92.1961 19.3571 89.9945 19.2996 87.7932 19.2996H87.7932ZM71.7229 30.1179C68.2832 33.8796 64.5181 38.819 61.6389 43.5828C60.2429 45.8925 58.1414 49.9111 56.9006 52.6472C56.6954 53.0998 56.5101 53.502 56.3537 53.8289C56.2739 53.7982 56.239 53.7921 56.1467 53.7547C55.5651 53.5192 54.7374 53.1453 53.8283 52.7215C52.0101 51.8738 49.8129 50.7766 48.219 49.8875C47.0831 49.2539 45.7334 48.4626 44.6604 47.8055C44.2112 47.5304 43.8528 47.2991 43.5393 47.0965C43.6876 46.9272 43.8078 46.7751 43.9963 46.5789C48.9009 41.4742 54.0918 37.5881 60.2658 34.3855C63.65 32.6302 67.9267 31.1803 71.7229 30.118V30.1179ZM103.819 30.1335C113.054 32.6842 122.148 37.5157 128.947 43.9812C130.093 45.0701 131.054 46.0226 131.707 46.7116C131.858 46.8705 131.932 46.9531 132.047 47.0808C131.721 47.2916 131.351 47.5385 130.897 47.8191C129.826 48.4809 128.533 49.2557 127.617 49.7683C126.834 50.207 125.05 51.1233 123.721 51.7761C122.392 52.4285 120.612 53.246 119.852 53.5632L119.233 53.8288L119.055 53.4148C118.107 51.2897 115.286 45.7939 114.287 44.1296C111.281 39.1203 107.492 34.1734 103.819 30.1335ZM83.5334 30.2058C83.5424 30.981 83.5551 31.8075 83.5627 32.9832C83.5808 35.9474 83.592 40.0413 83.592 44.5417V59.9558H83.3557C80.1383 59.9052 73.8659 59.0397 69.4631 58.0222C67.8831 57.657 66.3881 57.264 65.301 56.9441C64.9152 56.8306 64.6625 56.738 64.4006 56.6492C64.5713 56.2565 64.7983 55.7649 65.0647 55.2019C65.6351 53.9964 66.3604 52.5536 66.924 51.5105C70.4811 44.9274 74.1694 39.7929 79.2229 34.3992C79.9692 33.6026 81.4033 32.1968 82.6486 31.0183C82.9865 30.6986 83.2378 30.4787 83.5334 30.2058V30.2058ZM92.0529 30.2058C92.2437 30.3802 92.3899 30.5008 92.5979 30.6941C93.6309 31.6547 94.8266 32.7939 95.508 33.4988C100.876 39.0514 104.902 44.5516 108.617 51.407C109.147 52.3844 109.87 53.8612 110.463 55.114C110.746 55.7126 111.004 56.2458 111.186 56.6628C110.887 56.7638 110.57 56.8628 110.123 56.989C105.202 58.3797 99.6388 59.3994 94.4436 59.8386C93.5811 59.9115 92.433 59.9693 91.9924 59.9714V44.5281C91.9924 39.4635 92.0154 35.3703 92.0373 32.5535C92.0453 31.5263 92.0423 30.8786 92.0529 30.2058H92.0529ZM38.2092 53.7839C38.4195 53.9141 38.6159 54.0311 38.8733 54.198C43.0985 56.9386 48.3449 59.6977 52.8986 61.5789C53.1592 61.6865 53.2241 61.7315 53.3713 61.8015C53.2669 62.1453 53.1841 62.4206 53.0022 63.0125C51.0147 69.4797 49.6313 77.2688 49.3205 83.8132L38.4162 83.8445L27.6076 83.8737L27.6388 83.4148C27.7416 81.6635 28.0418 79.3493 28.4787 76.9792C29.5136 71.3646 31.5417 65.4928 34.1642 60.4421C35.3346 58.1881 37.1727 55.2388 38.2091 53.7839L38.2092 53.7839ZM137.332 53.8289C141.562 60.0872 144.569 66.4227 146.295 73.3308C147.169 76.8264 147.923 81.8891 147.947 83.8738H137.199C133.976 83.8738 131.041 83.8748 128.903 83.8582C127.833 83.8502 126.964 83.8395 126.363 83.8289C126.306 83.8279 126.283 83.8299 126.231 83.8289C126.231 83.8229 126.231 83.8189 126.231 83.8133C126.229 80.7537 125.382 74.4677 124.369 69.8172C123.89 67.6148 122.727 63.2567 122.215 61.8015C122.373 61.7298 122.51 61.6581 122.701 61.5789C127.217 59.714 132.509 56.925 136.713 54.198C136.952 54.0434 137.134 53.9443 137.332 53.8289V53.8289ZM114.535 63.5691C114.792 63.4877 114.863 63.6285 115.363 65.2195C117.082 70.6779 118.49 78.52 118.662 83.6003L118.701 84.7566L104.942 84.7898C94.0057 84.8172 91.1688 84.7906 91.1174 84.655C91.0812 84.5612 91.0665 80.6941 91.0862 76.0613L91.1213 67.6375L92.4807 67.5398C99.2819 67.0466 104.152 66.3115 109.364 64.993C111.196 64.5294 113.563 63.8777 114.535 63.5691L114.535 63.5691ZM61.4319 64.5925C67.9309 66.5966 75.0296 67.9209 82.9729 68.4753L83.5197 68.5183V76.1961V83.8133L70.719 83.8445C66.4317 83.8551 62.9787 83.8604 60.6057 83.8445C59.4192 83.8365 58.5076 83.8139 57.8889 83.7996C57.8626 83.799 57.8556 83.8002 57.8303 83.7996C57.8464 83.4777 57.8682 83.1365 57.9045 82.6765C57.9953 81.5269 58.1493 80.0445 58.3166 78.6902C58.8359 74.4853 59.9647 69.1812 61.1232 65.5066C61.2974 64.9542 61.3551 64.8006 61.4318 64.5925H61.4319ZM27.6076 92.2878H38.3713H49.2678C49.307 92.7449 49.4078 94.0408 49.4885 95.1531C49.9347 101.302 51.1368 107.701 52.9729 113.741L53.1936 114.448C52.9072 114.569 52.5897 114.712 52.2346 114.862C47.9483 116.675 42.1706 119.762 38.6662 122.112C38.4938 122.228 38.3468 122.322 38.1936 122.421C38.1534 122.367 38.1346 122.35 38.0901 122.288C37.7447 121.809 37.2728 121.1 36.7619 120.28C35.7401 118.64 34.5529 116.565 33.7502 114.966C30.4398 108.369 28.0359 99.6201 27.6389 92.7468L27.6076 92.2878ZM57.7854 92.2878L70.6154 92.3171L83.5197 92.362V99.9655V107.643L82.9729 107.688C75.1572 108.234 69.2232 109.25 62.4221 111.216L61.758 111.409C61.573 111.461 61.3658 111.513 61.2111 111.555C61.1369 111.335 61.0695 111.131 60.9748 110.817C60.6908 109.875 60.3229 108.58 59.9846 107.216C58.8625 102.691 58.0914 97.582 57.8147 92.8796L57.7854 92.2878ZM117.801 92.2878L117.772 92.8796C117.423 98.8091 116.341 104.954 114.641 110.743C114.526 111.134 114.458 111.38 114.391 111.585C114.345 111.57 114.354 111.572 114.301 111.555C108.08 109.58 100.509 108.223 92.6877 107.686L92.0666 107.643V99.9655V92.3464L104.971 92.3171L117.801 92.2878ZM126.305 92.2878H137.186H147.963C147.953 92.6715 147.887 93.6793 147.785 94.5613C146.639 104.49 143.446 113.317 138.041 121.491C137.799 121.857 137.594 122.15 137.406 122.421C137.317 122.362 137.252 122.323 137.156 122.259C133.55 119.838 127.653 116.681 123.352 114.862C122.997 114.712 122.679 114.569 122.393 114.448L122.613 113.741C124.496 107.55 125.849 100.172 126.172 94.2527C126.211 93.5291 126.268 92.6818 126.305 92.2878ZM83.592 116.206V131.944V132.77C83.591 136.991 83.574 140.936 83.5627 143.755C83.5577 144.983 83.5557 145.862 83.549 146.663C83.5369 146.652 83.5298 146.645 83.5178 146.634C82.6654 145.847 81.5795 144.816 80.5803 143.813C74.7627 137.977 70.0604 131.485 66.26 124.059C65.7691 123.1 65.1584 121.811 64.6663 120.739C64.4569 120.283 64.2759 119.902 64.1331 119.571C64.253 119.532 64.3069 119.5 64.4592 119.454C65.2579 119.211 66.4846 118.885 68.1194 118.479C72.8062 117.316 78.6144 116.435 82.678 116.251L83.592 116.206ZM91.9924 116.206L92.8791 116.251C95.3719 116.367 98.9711 116.783 102.137 117.342C104.082 117.686 106.662 118.278 108.735 118.805C109.771 119.069 110.686 119.314 111.319 119.512C111.385 119.534 111.407 119.538 111.467 119.557C111.275 120.001 110.991 120.633 110.567 121.551C106.452 130.45 100.089 139.193 92.924 145.837C92.6002 146.137 92.3405 146.375 92.0529 146.635C92.0489 146.456 92.0411 146.469 92.0373 146.251C92.0063 144.087 91.9924 139.893 91.9924 131.944L91.9924 116.206ZM56.1018 122.45C56.2037 122.656 56.2742 122.792 56.4865 123.278C60.0839 131.511 65.3394 139.416 71.3088 146.132C70.2421 145.817 69.0458 145.441 68.135 145.128C60.789 142.601 53.9755 138.664 48.0569 133.509C47.602 133.112 46.2613 131.798 45.0744 130.616C44.4921 130.036 43.9448 129.485 43.5393 129.065C43.981 128.774 44.5571 128.41 45.2658 127.987C46.7804 127.083 48.7262 125.986 50.3889 125.124C51.3305 124.635 52.7505 123.947 54.0061 123.366C55.0071 122.902 55.6614 122.629 56.1018 122.45V122.45ZM119.483 122.45C120.25 122.743 121.638 123.361 123.381 124.223C125.361 125.203 127.53 126.349 129.022 127.219C130.514 128.09 131.51 128.683 132.063 129.065C131.758 129.387 131.361 129.808 130.91 130.26C129.997 131.177 128.903 132.229 128.18 132.889C121.614 138.886 113.067 143.349 104.483 145.807C110.388 139.095 115.522 131.455 119.1 123.278C119.312 122.792 119.381 122.656 119.483 122.45V122.45Z" fill="#222222"/>
<path d="M5.5 140V171.5C5.5 183.134 14.866 192.5 26.5 192.5H173.5C185.134 192.5 194.5 183.134 194.5 171.5V140H5.5Z" fill="#222222"/>
<path d="M26.0561 157.08C22.4081 157.08 19.9361 158.88 19.9361 161.76C19.9361 167.736 29.0081 165.648 29.0081 169.392C29.0081 170.688 27.8321 171.432 25.8641 171.432C24.0641 171.432 21.9041 170.568 20.1761 168.984L18.9521 171.432C20.6801 173.016 23.1761 174.096 25.8161 174.096C29.5121 174.096 32.1521 172.248 32.1521 169.248C32.1761 163.2 23.1041 165.168 23.1041 161.496C23.1041 160.368 24.1841 159.744 25.8401 159.744C27.1121 159.744 28.9361 160.2 30.7601 161.304L31.9361 158.808C30.3761 157.776 28.2401 157.08 26.0561 157.08ZM46.9378 159.744V157.2H33.4738V159.744H38.7778V174H41.6098V159.744H46.9378ZM60.0203 174H63.2363L59.4683 168.384C61.7003 167.52 62.9483 165.624 62.9483 162.936C62.9483 159.288 60.4763 157.2 56.1803 157.2H49.3643V174H52.1963V168.936H56.1803C56.4443 168.936 56.7083 168.936 56.9483 168.912L60.0203 174ZM52.1963 166.392V159.744H56.1803C58.7723 159.744 60.2603 160.8 60.2603 163.008C60.2603 165.288 58.7723 166.392 56.1803 166.392H52.1963ZM80.988 157.2H78.156V167.04C78.156 169.896 76.452 171.576 73.716 171.576C70.956 171.576 69.204 169.872 69.204 167.04V157.2H66.372V167.04C66.372 171.432 69.156 174.12 73.692 174.12C78.228 174.12 80.988 171.432 80.988 167.04V157.2ZM92.4761 157.128C87.5081 157.128 83.6441 160.8 83.6441 165.576C83.6441 170.4 87.4601 174.12 92.3801 174.12C94.7561 174.12 97.1801 173.04 98.8841 171.36L97.2041 169.488C95.9321 170.712 94.2041 171.48 92.5241 171.48C89.1641 171.48 86.5241 168.864 86.5241 165.552C86.5241 162.24 89.1641 159.648 92.5241 159.648C94.2281 159.648 95.9801 160.464 97.2041 161.784L98.8601 159.72C97.2281 158.112 94.8521 157.128 92.4761 157.128ZM113.243 159.744V157.2H99.7785V159.744H105.083V174H107.915V159.744H113.243ZM129.949 157.2H127.117V167.04C127.117 169.896 125.413 171.576 122.677 171.576C119.917 171.576 118.165 169.872 118.165 167.04V157.2H115.333V167.04C115.333 171.432 118.117 174.12 122.653 174.12C127.189 174.12 129.949 171.432 129.949 167.04V157.2ZM144.653 174H147.869L144.101 168.384C146.333 167.52 147.581 165.624 147.581 162.936C147.581 159.288 145.109 157.2 140.813 157.2H133.997V174H136.829V168.936H140.813C141.077 168.936 141.341 168.936 141.581 168.912L144.653 174ZM136.829 166.392V159.744H140.813C143.405 159.744 144.893 160.8 144.893 163.008C144.893 165.288 143.405 166.392 140.813 166.392H136.829ZM162.189 170.208L163.797 174H166.821L159.477 157.2H156.573L149.157 174H152.109L153.717 170.208H162.189ZM161.109 167.688H154.773L157.941 160.224L161.109 167.688ZM171.892 171.432V157.2H169.06V174H179.164V171.432H171.892Z" fill="white"/>
</svg>
